<svg id="visual" viewBox="0 0 960 540" width="960" height="540" xmlns="http://www.w3.org/2000/svg" xmlns:xlink="http://www.w3.org/1999/xlink" version="1.1"><path d="M0 33L240 33L480 12L720 39L960 12L960 0L720 0L480 0L240 0L0 0Z" fill="#24e0a7"></path><path d="M0 66L240 55L480 39L720 50L960 28L960 10L720 37L480 10L240 31L0 31Z" fill="#0dc99c"></path><path d="M0 77L240 77L480 55L720 66L960 60L960 26L720 48L480 37L240 53L0 64Z" fill="#00b391"></path><path d="M0 201L240 158L480 114L720 163L960 179L960 58L720 64L480 53L240 75L0 75Z" fill="#009d84"></path><path d="M0 233L240 185L480 147L720 195L960 222L960 177L720 161L480 112L240 156L0 199Z" fill="#008876"></path><path d="M0 314L240 255L480 239L720 260L960 320L960 220L720 193L480 145L240 183L0 231Z" fill="#087367"></path><path d="M0 379L240 374L480 384L720 395L960 390L960 318L720 258L480 237L240 253L0 312Z" fill="#115f57"></path><path d="M0 428L240 411L480 449L720 433L960 411L960 388L720 393L480 382L240 372L0 377Z" fill="#164b47"></path><path d="M0 460L240 449L480 487L720 460L960 449L960 409L720 431L480 447L240 409L0 426Z" fill="#183837"></path><path d="M0 492L240 498L480 519L720 498L960 514L960 447L720 458L480 485L240 447L0 458Z" fill="#172626"></path><path d="M0 541L240 541L480 541L720 541L960 541L960 512L720 496L480 517L240 496L0 490Z" fill="#131515"></path></svg>